<svg id="visual" viewBox="0 0 960 540" width="960" height="540" xmlns="http://www.w3.org/2000/svg" xmlns:xlink="http://www.w3.org/1999/xlink" version="1.1"><rect x="0" y="0" width="960" height="540" fill="#283DA1"></rect><path d="M295 0L303.2 22.5C311.3 45 327.7 90 323.5 135C319.3 180 294.7 225 300.5 270C306.3 315 342.7 360 364 405C385.3 450 391.7 495 394.8 517.5L398 540L0 540L0 517.5C0 495 0 450 0 405C0 360 0 315 0 270C0 225 0 180 0 135C0 90 0 45 0 22.5L0 0Z" fill="#f8f9fa" stroke-linecap="round" stroke-linejoin="miter"></path></svg>