<svg id="visual" viewBox="0 0 960 540" width="960" height="540" xmlns="http://www.w3.org/2000/svg" xmlns:xlink="http://www.w3.org/1999/xlink" version="1.1"><path d="M0 50L14.5 48.2C29 46.3 58 42.7 87.2 44.3C116.3 46 145.7 53 174.8 52C204 51 233 42 262 43.8C291 45.7 320 58.3 349 60.2C378 62 407 53 436.2 55.7C465.3 58.3 494.7 72.7 523.8 72.7C553 72.7 582 58.3 611 58.3C640 58.3 669 72.7 698 72.7C727 72.7 756 58.3 785.2 55.7C814.3 53 843.7 62 872.8 66.5C902 71 931 71 945.5 71L960 71L960 0L945.5 0C931 0 902 0 872.8 0C843.7 0 814.3 0 785.2 0C756 0 727 0 698 0C669 0 640 0 611 0C582 0 553 0 523.8 0C494.7 0 465.3 0 436.2 0C407 0 378 0 349 0C320 0 291 0 262 0C233 0 204 0 174.8 0C145.7 0 116.3 0 87.2 0C58 0 29 0 14.5 0L0 0Z" fill="#5d6abd"></path><path d="M0 266L14.5 245.2C29 224.3 58 182.7 87.2 165.5C116.3 148.3 145.7 155.7 174.8 163C204 170.3 233 177.7 262 189.3C291 201 320 217 349 227.7C378 238.3 407 243.7 436.2 249.2C465.3 254.7 494.7 260.3 523.8 263.2C553 266 582 266 611 265C640 264 669 262 698 253.8C727 245.7 756 231.3 785.2 233.2C814.3 235 843.7 253 872.8 265.7C902 278.3 931 285.7 945.5 289.3L960 293L960 69L945.5 69C931 69 902 69 872.8 64.5C843.7 60 814.3 51 785.2 53.7C756 56.3 727 70.7 698 70.7C669 70.7 640 56.3 611 56.3C582 56.3 553 70.7 523.8 70.7C494.7 70.7 465.3 56.3 436.2 53.7C407 51 378 60 349 58.2C320 56.3 291 43.7 262 41.8C233 40 204 49 174.8 50C145.7 51 116.3 44 87.2 42.3C58 40.7 29 44.3 14.5 46.2L0 48Z" fill="#4453af"></path><path d="M0 336L14.5 336.8C29 337.7 58 339.3 87.2 342.8C116.3 346.3 145.7 351.7 174.8 352.7C204 353.7 233 350.3 262 348.7C291 347 320 347 349 345.2C378 343.3 407 339.7 436.2 341.3C465.3 343 494.7 350 523.8 359C553 368 582 379 611 376.3C640 373.7 669 357.3 698 360C727 362.7 756 384.3 785.2 390.7C814.3 397 843.7 388 872.8 380.8C902 373.7 931 368.3 945.5 365.7L960 363L960 291L945.5 287.3C931 283.7 902 276.3 872.8 263.7C843.7 251 814.3 233 785.2 231.2C756 229.3 727 243.7 698 251.8C669 260 640 262 611 263C582 264 553 264 523.8 261.2C494.7 258.3 465.3 252.7 436.2 247.2C407 241.7 378 236.3 349 225.7C320 215 291 199 262 187.3C233 175.7 204 168.3 174.8 161C145.7 153.7 116.3 146.3 87.2 163.5C58 180.7 29 222.3 14.5 243.2L0 264Z" fill="#283da1"></path><path d="M0 406L14.5 410.5C29 415 58 424 87.2 431.2C116.3 438.3 145.7 443.7 174.8 445.5C204 447.3 233 445.7 262 437.7C291 429.7 320 415.3 349 411.7C378 408 407 415 436.2 417.7C465.3 420.3 494.7 418.7 523.8 429.5C553 440.3 582 463.7 611 468.2C640 472.7 669 458.3 698 459.2C727 460 756 476 785.2 479.5C814.3 483 843.7 474 872.8 466.8C902 459.7 931 454.3 945.5 451.7L960 449L960 361L945.5 363.7C931 366.3 902 371.7 872.8 378.8C843.7 386 814.3 395 785.2 388.7C756 382.3 727 360.7 698 358C669 355.3 640 371.7 611 374.3C582 377 553 366 523.8 357C494.7 348 465.3 341 436.2 339.3C407 337.7 378 341.3 349 343.2C320 345 291 345 262 346.7C233 348.3 204 351.7 174.8 350.7C145.7 349.7 116.3 344.3 87.2 340.8C58 337.3 29 335.7 14.5 334.8L0 334Z" fill="#1f368c"></path><path d="M0 541L14.5 541C29 541 58 541 87.2 541C116.3 541 145.7 541 174.8 541C204 541 233 541 262 541C291 541 320 541 349 541C378 541 407 541 436.2 541C465.3 541 494.7 541 523.8 541C553 541 582 541 611 541C640 541 669 541 698 541C727 541 756 541 785.2 541C814.3 541 843.7 541 872.8 541C902 541 931 541 945.5 541L960 541L960 447L945.5 449.7C931 452.3 902 457.7 872.8 464.8C843.7 472 814.3 481 785.2 477.5C756 474 727 458 698 457.2C669 456.3 640 470.7 611 466.2C582 461.7 553 438.3 523.8 427.5C494.7 416.7 465.3 418.3 436.2 415.7C407 413 378 406 349 409.7C320 413.3 291 427.7 262 435.7C233 443.7 204 445.3 174.8 443.5C145.7 441.7 116.3 436.3 87.2 429.2C58 422 29 413 14.5 408.5L0 404Z" fill="#172e77"></path></svg>